<svg width="755" height="162" viewBox="0 0 755 162" fill="none" xmlns="http://www.w3.org/2000/svg">
<path d="M3.92597 131.913C2.87905 131.913 1.93681 131.546 1.09927 130.813C0.366424 129.976 0 129.034 0 127.987V25.9114C0 24.7598 0.366424 23.8175 1.09927 23.0847C1.93681 22.3519 2.87905 21.9854 3.92597 21.9854H24.6551C25.8067 21.9854 26.7489 22.3519 27.4818 23.0847C28.2146 23.8175 28.5811 24.7598 28.5811 25.9114V108.2H76.1638C77.3154 108.2 78.2577 108.619 78.9905 109.456C79.7234 110.189 80.0898 111.131 80.0898 112.283V127.987C80.0898 129.034 79.7234 129.976 78.9905 130.813C78.2577 131.546 77.3154 131.913 76.1638 131.913H3.92597Z" fill="white"/>
<path d="M128.897 133.483C116.334 133.483 106.44 130.08 99.2167 123.275C91.9929 116.47 88.224 106.577 87.9099 93.5947V88.0984C88.3287 75.7447 92.15 66.1129 99.3738 59.2032C106.702 52.1888 116.491 48.6816 128.74 48.6816C137.639 48.6816 145.124 50.5137 151.196 54.178C157.373 57.7375 161.98 62.6581 165.016 68.9396C168.157 75.2212 169.727 82.445 169.727 90.611V94.3799C169.727 95.4269 169.361 96.3691 168.628 97.2066C167.895 97.9395 166.953 98.3059 165.801 98.3059H115.549V99.4052C115.758 104.326 116.962 108.304 119.161 111.341C121.359 114.377 124.552 115.895 128.74 115.895C131.357 115.895 133.503 115.371 135.179 114.324C136.854 113.173 138.372 111.812 139.733 110.241C140.675 109.09 141.408 108.409 141.931 108.2C142.559 107.886 143.502 107.729 144.758 107.729H164.231C165.173 107.729 165.958 108.043 166.586 108.671C167.319 109.194 167.686 109.927 167.686 110.869C167.686 113.591 166.115 116.732 162.974 120.292C159.938 123.851 155.489 126.94 149.626 129.557C143.763 132.174 136.854 133.483 128.897 133.483ZM142.088 82.7591V82.445C142.088 77.315 140.884 73.2844 138.476 70.353C136.173 67.3169 132.928 65.7989 128.74 65.7989C124.657 65.7989 121.411 67.3169 119.004 70.353C116.7 73.2844 115.549 77.315 115.549 82.445V82.7591H142.088Z" fill="white"/>
<path d="M225.915 131.913C204.244 131.913 193.408 121.6 193.408 100.976V70.8245H181.159C180.007 70.8245 179.013 70.4581 178.175 69.7252C177.442 68.9924 177.076 68.0502 177.076 66.8985V54.1784C177.076 53.0268 177.442 52.0845 178.175 51.3517C179.013 50.6188 180.007 50.2524 181.159 50.2524H193.408V24.341C193.408 23.1894 193.774 22.2472 194.507 21.5143C195.345 20.7815 196.287 20.415 197.334 20.415H215.55C216.702 20.415 217.644 20.7815 218.377 21.5143C219.11 22.2472 219.476 23.1894 219.476 24.341V50.2524H239.106C240.258 50.2524 241.2 50.6188 241.933 51.3517C242.771 52.0845 243.189 53.0268 243.189 54.1784V66.8985C243.189 68.0502 242.771 68.9924 241.933 69.7252C241.2 70.4581 240.258 70.8245 239.106 70.8245H219.476V98.7774C219.476 106.525 222.46 110.398 228.428 110.398H240.52C241.671 110.398 242.614 110.765 243.346 111.498C244.079 112.23 244.446 113.173 244.446 114.324V127.987C244.446 129.034 244.079 129.976 243.346 130.813C242.614 131.546 241.671 131.913 240.52 131.913H225.915Z" fill="white"/>
<path d="M391.422 131.913C390.375 131.913 389.433 131.546 388.595 130.813C387.862 129.976 387.496 129.034 387.496 127.987V24.341C387.496 23.1894 387.862 22.2472 388.595 21.5143C389.433 20.7815 390.375 20.415 391.422 20.415H411.523C412.674 20.415 413.617 20.7815 414.349 21.5143C415.082 22.2472 415.449 23.1894 415.449 24.341V59.3607C421.73 52.2416 430.001 48.682 440.261 48.682C446.333 48.682 451.725 50.043 456.436 52.765C461.252 55.487 465.021 59.5177 467.743 64.857C470.465 70.1964 471.826 76.6349 471.826 84.1728V127.987C471.826 129.034 471.459 129.976 470.726 130.813C469.993 131.546 469.051 131.913 467.9 131.913H447.642C446.595 131.913 445.652 131.546 444.815 130.813C444.082 129.976 443.716 129.034 443.716 127.987V85.115C443.716 80.1945 442.512 76.4256 440.104 73.8082C437.8 71.0862 434.398 69.7252 429.896 69.7252C425.394 69.7252 421.835 71.0862 419.218 73.8082C416.705 76.4256 415.449 80.1945 415.449 85.115V127.987C415.449 129.138 415.082 130.08 414.349 130.813C413.617 131.546 412.674 131.913 411.523 131.913H391.422Z" fill="white"/>
<path d="M527.322 133.483C514.759 133.483 504.865 130.08 497.641 123.275C490.418 116.47 486.649 106.577 486.334 93.5947V88.0984C486.753 75.7447 490.575 66.1129 497.798 59.2032C505.127 52.1888 514.916 48.6816 527.165 48.6816C536.063 48.6816 543.549 50.5137 549.621 54.178C555.798 57.7375 560.404 62.6581 563.441 68.9396C566.581 75.2212 568.152 82.445 568.152 90.611V94.3799C568.152 95.4269 567.785 96.3691 567.052 97.2066C566.32 97.9395 565.377 98.3059 564.226 98.3059H513.973V99.4052C514.183 104.326 515.387 108.304 517.585 111.341C519.784 114.377 522.977 115.895 527.165 115.895C529.782 115.895 531.928 115.371 533.603 114.324C535.278 113.173 536.796 111.812 538.157 110.241C539.1 109.09 539.832 108.409 540.356 108.2C540.984 107.886 541.926 107.729 543.183 107.729H562.655C563.598 107.729 564.383 108.043 565.011 108.671C565.744 109.194 566.11 109.927 566.11 110.869C566.11 113.591 564.54 116.732 561.399 120.292C558.363 123.851 553.914 126.94 548.051 129.557C542.188 132.174 535.278 133.483 527.322 133.483ZM540.513 82.7591V82.445C540.513 77.315 539.309 73.2844 536.901 70.353C534.598 67.3169 531.352 65.7989 527.165 65.7989C523.082 65.7989 519.836 67.3169 517.428 70.353C515.125 73.2844 513.973 77.315 513.973 82.445V82.7591H540.513Z" fill="white"/>
<path d="M586.8 131.913C585.753 131.913 584.811 131.546 583.973 130.813C583.241 129.976 582.874 129.034 582.874 127.987V24.341C582.874 23.1894 583.241 22.2472 583.973 21.5143C584.811 20.7815 585.753 20.415 586.8 20.415H605.331C606.482 20.415 607.425 20.7815 608.157 21.5143C608.89 22.2472 609.257 23.1894 609.257 24.341V127.987C609.257 129.138 608.89 130.08 608.157 130.813C607.425 131.546 606.482 131.913 605.331 131.913H586.8Z" fill="white"/>
<path d="M631.734 161.75C630.687 161.75 629.745 161.384 628.907 160.651C628.175 159.918 627.808 158.976 627.808 157.824V54.178C627.808 53.0264 628.175 52.0841 628.907 51.3513C629.745 50.6184 630.687 50.252 631.734 50.252H649.479C650.631 50.252 651.573 50.6184 652.306 51.3513C653.039 52.0841 653.405 53.0264 653.405 54.178V59.8314C659.059 52.3982 667.172 48.6816 677.746 48.6816C688.006 48.6816 696.015 51.8748 701.773 58.261C707.531 64.6472 710.672 73.6508 711.196 85.2717C711.3 86.6327 711.353 88.5695 711.353 91.0821C711.353 93.5947 711.3 95.5316 711.196 96.8926C710.777 108.2 707.636 117.151 701.773 123.747C695.911 130.238 687.902 133.483 677.746 133.483C667.487 133.483 659.844 129.976 654.819 122.961V157.824C654.819 158.976 654.452 159.918 653.719 160.651C652.987 161.384 652.044 161.75 650.893 161.75H631.734ZM669.266 112.44C674.187 112.44 677.694 110.974 679.788 108.043C681.986 105.111 683.243 101.081 683.557 95.9503C683.766 93.8565 683.871 92.2337 683.871 91.0821C683.871 89.9305 683.766 88.3078 683.557 86.2139C683.243 81.084 681.986 77.0533 679.788 74.1219C677.694 71.1905 674.187 69.7248 669.266 69.7248C664.45 69.7248 660.891 71.2429 658.588 74.279C656.389 77.2104 655.133 81.0316 654.819 85.7428L654.662 91.5532L654.819 97.5207C655.028 101.814 656.337 105.373 658.745 108.2C661.153 111.026 664.66 112.44 669.266 112.44Z" fill="white"/>
<path d="M731.432 97.207C730.385 97.207 729.442 96.8406 728.605 96.1078C727.872 95.2702 727.506 94.328 727.506 93.2811V25.9114C727.506 24.7598 727.872 23.8175 728.605 23.0847C729.442 22.3519 730.385 21.9854 731.432 21.9854H749.491C750.643 21.9854 751.585 22.3519 752.318 23.0847C753.051 23.8175 753.417 24.7598 753.417 25.9114V93.2811C753.417 94.328 753.051 95.2702 752.318 96.1078C751.585 96.8406 750.643 97.207 749.491 97.207H731.432ZM730.803 131.913C729.652 131.913 728.71 131.546 727.977 130.813C727.244 130.08 726.877 129.138 726.877 127.987V108.671C726.877 107.519 727.244 106.577 727.977 105.844C728.71 105.007 729.652 104.588 730.803 104.588H750.119C751.166 104.588 752.056 105.007 752.789 105.844C753.626 106.577 754.045 107.519 754.045 108.671V127.987C754.045 129.034 753.679 129.976 752.946 130.813C752.213 131.546 751.271 131.913 750.119 131.913H730.803Z" fill="white"/>
<path d="M261.469 132.772C260.422 132.772 259.48 132.405 258.642 131.673C257.909 130.835 257.543 129.893 257.543 128.846V26.7707C257.543 25.6191 257.909 24.6768 258.642 23.944C259.48 23.2112 260.422 22.8447 261.469 22.8447H278.429C280.942 22.8447 282.774 23.9963 283.925 26.2996L311.564 75.7668L339.203 26.2996C340.355 23.9963 342.187 22.8447 344.7 22.8447H361.503C362.654 22.8447 363.597 23.2112 364.329 23.944C365.167 24.6768 365.586 25.6191 365.586 26.7707V128.846C365.586 129.998 365.167 130.94 364.329 131.673C363.597 132.405 362.654 132.772 361.503 132.772H342.815C341.663 132.772 340.669 132.405 339.831 131.673C339.098 130.94 338.732 129.998 338.732 128.846V69.9564L321.144 102.777C319.783 105.185 317.951 106.389 315.647 106.389H307.481C306.12 106.389 305.021 106.075 304.183 105.447C303.346 104.819 302.613 103.929 301.985 102.777L284.24 69.9564V128.846C284.24 129.893 283.873 130.835 283.14 131.673C282.407 132.405 281.465 132.772 280.314 132.772H261.469Z" fill="#FFD84C"/>
<path d="M302.331 0.552496L243.167 30.824C239.24 32.8335 239.323 38.6987 243.306 40.5857L302.467 68.6132C303.797 69.2431 305.32 69.2587 306.661 68.6561L369.052 40.6269C373.16 38.7814 373.244 32.7418 369.188 30.7742L306.8 0.504366C305.38 -0.184606 303.737 -0.166912 302.331 0.552496Z" fill="#004E89"/>
<path fill-rule="evenodd" clip-rule="evenodd" d="M309.318 33.5112C309.6 34.9145 308.627 36.2687 307.146 36.536L252.013 46.4815V72.7926C252.013 74.2211 250.79 75.3791 249.282 75.3791C247.774 75.3791 246.551 74.2211 246.551 72.7926V44.3411C246.551 43.0993 247.483 42.0327 248.771 41.8003L306.124 31.4544C307.605 31.1871 309.035 32.108 309.318 33.5112Z" fill="#FFC914"/>
</svg>
