<svg width="132" height="133" viewBox="0 0 132 133" fill="none" xmlns="http://www.w3.org/2000/svg">
<path d="M21.1994 132.772C20.1525 132.772 19.2102 132.405 18.3727 131.673C17.6399 130.835 17.2734 129.893 17.2734 128.846V26.7707C17.2734 25.6191 17.6399 24.6768 18.3727 23.944C19.2102 23.2112 20.1525 22.8447 21.1994 22.8447H38.1596C40.6722 22.8447 42.5043 23.9963 43.656 26.2996L71.2948 75.7668L98.9336 26.2996C100.085 23.9963 101.917 22.8447 104.43 22.8447H121.233C122.385 22.8447 123.327 23.2112 124.06 23.944C124.897 24.6768 125.316 25.6191 125.316 26.7707V128.846C125.316 129.998 124.897 130.94 124.06 131.673C123.327 132.405 122.385 132.772 121.233 132.772H102.546C101.394 132.772 100.399 132.405 99.5618 131.673C98.8289 130.94 98.4625 129.998 98.4625 128.846V69.9564L80.8742 102.777C79.5132 105.185 77.681 106.389 75.3778 106.389H67.2118C65.8508 106.389 64.7515 106.075 63.914 105.447C63.0764 104.819 62.3436 103.929 61.7154 102.777L43.97 69.9564V128.846C43.97 129.893 43.6036 130.835 42.8708 131.673C42.1379 132.405 41.1957 132.772 40.0441 132.772H21.1994Z" fill="#FFD84C"/>
<path d="M62.0618 0.552496L2.89742 30.824C-1.03003 32.8335 -0.946408 38.6987 3.0366 40.5857L62.1973 68.6132C63.527 69.2431 65.05 69.2587 66.3913 68.6561L128.783 40.6269C132.891 38.7814 132.974 32.7418 128.919 30.7742L66.5307 0.504366C65.1107 -0.184606 63.4678 -0.166912 62.0618 0.552496Z" fill="#004E89"/>
<path fill-rule="evenodd" clip-rule="evenodd" d="M69.048 33.5112C69.3303 34.9145 68.3579 36.2687 66.8762 36.536L11.7434 46.4815V72.7926C11.7434 74.2211 10.5207 75.3791 9.01234 75.3791C7.504 75.3791 6.28125 74.2211 6.28125 72.7926V44.3411C6.28125 43.0993 7.21319 42.0327 8.50132 41.8003L65.8542 31.4544C67.3359 31.1871 68.7658 32.108 69.048 33.5112Z" fill="#FFC914"/>
</svg>
